<?xml version="1.0" standalone="no"?>
<!DOCTYPE svg PUBLIC "-//W3C//DTD SVG 1.1//EN" "http://www.w3.org/Graphics/SVG/1.1/DTD/svg11.dtd" >
<svg xmlns="http://www.w3.org/2000/svg" xmlns:xlink="http://www.w3.org/1999/xlink" version="1.1">
<metadata>
Created by FontForge 20201107 at Thu Aug 20 11:20:30 2020
 By 
</metadata>
<defs>
<font id="MovaRegular" horiz-adv-x="590" >
  <font-face 
    font-family="Mova"
    font-weight="400"
    font-stretch="normal"
    units-per-em="1000"
    panose-1="0 0 0 0 0 0 0 0 0 0"
    ascent="800"
    descent="-200"
    x-height="432"
    cap-height="700"
    bbox="50 -222 867 754"
    underline-thickness="50"
    underline-position="-150"
    unicode-range="U+000A-00AD"
  />
<missing-glyph horiz-adv-x="527" 
d="M50 700h427v-700h-427v700zM78 680l185 -309l186 309h-371zM251 350l-180 300v-601zM264 329l-185 -308h370zM276 350l181 -303v605z" />
    <glyph glyph-name=".notdef" horiz-adv-x="527" 
d="M50 700h427v-700h-427v700zM78 680l185 -309l186 309h-371zM251 350l-180 300v-601zM264 329l-185 -308h370zM276 350l181 -303v605z" />
    <glyph glyph-name=".null" horiz-adv-x="0" 
 />
    <glyph glyph-name=".null" horiz-adv-x="0" 
 />
    <glyph glyph-name="nonmarkingreturn" horiz-adv-x="333" 
 />
    <glyph glyph-name="LF" unicode="&#xa;" horiz-adv-x="0" 
 />
    <glyph glyph-name="controlCR" unicode="&#xd;" horiz-adv-x="0" 
 />
    <glyph glyph-name="space" unicode=" " horiz-adv-x="290" 
 />
    <glyph glyph-name="zero" unicode="0" horiz-adv-x="800" 
d="M400 700q144 0 247 -103t103 -247q0 -145 -103 -247.5t-247 -102.5q-145 0 -247.5 102.5t-102.5 247.5q0 144 102.5 247t247.5 103zM400 560q-87 0 -148.5 -62t-61.5 -148q0 -87 61.5 -148.5t148.5 -61.5q86 0 148 61.5t62 148.5q0 86 -62 148t-148 62z" />
    <glyph glyph-name="one" unicode="1" horiz-adv-x="310" 
d="M50 640l210 60v-700h-140v515l-70 -21v146z" />
    <glyph glyph-name="two" unicode="2" horiz-adv-x="520" 
d="M470 490q0 -10 -13.5 -34.5t-35.5 -56t-48 -67t-52.5 -69.5t-48 -61.5t-35 -44.5l-13.5 -17h246v-140h-420v140q280 319 280 350q0 29 -20.5 49.5t-49.5 20.5t-49.5 -20.5t-20.5 -49.5h-140q0 87 61.5 148.5t148.5 61.5t148.5 -61.5t61.5 -148.5z" />
    <glyph glyph-name="three" unicode="3" horiz-adv-x="553" 
d="M363 228q0 34 -56.5 91t-78.5 68q4 3 18 0.5t34 0t38.5 8.5t31.5 25.5t13 51.5q0 36 -26 61.5t-62 25.5q-32 0 -56 -20t-30 -50l-139 4q14 96 76 150q64 56 149 56q57 0 99.5 -17t64.5 -39.5t35.5 -52.5t16.5 -49.5t3 -36.5q0 -100 -62 -143q29 -27 45.5 -54.5t20 -42.5
t4.5 -36q7 -88 -66 -162q-67 -67 -161 -67q-85 0 -149 56q-62 54 -76 151l139 3q7 -30 30.5 -50t55.5 -20q36 0 62 25.5t26 62.5z" />
    <glyph glyph-name="four" unicode="4" horiz-adv-x="695" 
d="M304 700l131 -1l-175 -419h175v280h140v-280h70v-140h-70v-140h-140v140h-385z" />
    <glyph glyph-name="five" unicode="5" horiz-adv-x="595" 
d="M289 350q-30 0 -53 -5t-50 -30h-132l37 385h405v-140h-279l-8 -82q22 7 39 9.5t41 2.5q106 0 181 -72t75 -173t-75 -173t-181 -72q-78 0 -141 41q-40 26 -66 60t-32 90l145 1q31 -52 94 -52q46 0 78 31t32 74t-32 74t-78 31z" />
    <glyph glyph-name="six" unicode="6" 
d="M273 700h161l-121 -211q95 -7 161 -77.5t66 -166.5q0 -101 -72 -173t-173 -72t-173 72t-72 173q0 59 27 112q2 4 7.5 14.5t7.5 14.5zM294.5 350q-43.5 0 -74 -31t-30.5 -74t30.5 -74t74 -31t74.5 30.5t31 74t-31 74.5t-74.5 31z" />
    <glyph glyph-name="seven" unicode="7" 
d="M50 700h490l-221 -700h-147l175 563l-297 -2v139z" />
    <glyph glyph-name="eight" unicode="8" horiz-adv-x="555" 
d="M433 394q72 -68 72 -166q0 -94 -67 -161t-160.5 -67t-160.5 67t-67 161q0 97 73 166q-38 50 -38 114q0 79 56.5 135.5t136 56.5t136 -56.5t56.5 -135.5q0 -64 -37 -114zM278 315q-37 0 -62.5 -25.5t-25.5 -61.5q0 -37 25.5 -62.5t62.5 -25.5q36 0 61.5 25.5t25.5 62.5
q0 36 -25.5 61.5t-61.5 25.5zM277.5 455q21.5 0 37 15.5t15.5 37.5q0 21 -15.5 36.5t-37 15.5t-37 -15.5t-15.5 -36.5q0 -22 15.5 -37.5t37 -15.5z" />
    <glyph glyph-name="nine" unicode="9" 
d="M156 0l121 211q-95 7 -161 77.5t-66 166.5q0 101 72 173t173 72t173 -72t72 -173q0 -59 -27 -112q-3 -5 -7.5 -15t-7.5 -14l-181 -314h-161zM295 350q43 0 74 31t31 74t-31 74t-74.5 31t-74 -31t-30.5 -74t31 -74t74 -31z" />
    <glyph glyph-name="A" unicode="A" horiz-adv-x="730" 
d="M380 667l300 -667h-149l-112 245h1l-55 122l-55 -122v0l64 -140h-127l-2 -5l-46 -100h-149l300 667l14 33z" />
    <glyph glyph-name="A" unicode="&#xc5;" horiz-adv-x="730" 
d="M380 667l300 -667h-149l-112 245h1l-55 122l-55 -122v0l64 -140h-127l-2 -5l-46 -100h-149l300 667l14 33z" />
    <glyph glyph-name="A" unicode="&#xc4;" horiz-adv-x="730" 
d="M380 667l300 -667h-149l-112 245h1l-55 122l-55 -122v0l64 -140h-127l-2 -5l-46 -100h-149l300 667l14 33z" />
    <glyph glyph-name="A" unicode="&#xc3;" horiz-adv-x="730" 
d="M380 667l300 -667h-149l-112 245h1l-55 122l-55 -122v0l64 -140h-127l-2 -5l-46 -100h-149l300 667l14 33z" />
    <glyph glyph-name="A" unicode="&#xc2;" horiz-adv-x="730" 
d="M380 667l300 -667h-149l-112 245h1l-55 122l-55 -122v0l64 -140h-127l-2 -5l-46 -100h-149l300 667l14 33z" />
    <glyph glyph-name="A" unicode="&#xc1;" horiz-adv-x="730" 
d="M380 667l300 -667h-149l-112 245h1l-55 122l-55 -122v0l64 -140h-127l-2 -5l-46 -100h-149l300 667l14 33z" />
    <glyph glyph-name="A" unicode="&#xc0;" horiz-adv-x="730" 
d="M380 667l300 -667h-149l-112 245h1l-55 122l-55 -122v0l64 -140h-127l-2 -5l-46 -100h-149l300 667l14 33z" />
    <glyph glyph-name="B" unicode="B" 
d="M498 381q42 -61 42 -136q0 -101 -72 -173t-173 -72h-245v700h175q72 0 123.5 -51.5t51.5 -123.5q0 -47 -24 -88q30 -1 67 -15t55 -41zM190 560v-104h35q16 0 25.5 19t9.5 39q0 19 -9 32.5t-26 13.5h-35zM369 170.5q31 30.5 31 74.5q0 12 -5.5 23.5t-17 22.5t-33 18
t-49.5 7h-105v-176h105q43 0 74 30.5z" />
    <glyph glyph-name="C" unicode="C" horiz-adv-x="698" 
d="M400 140q87 0 149 62l99 -99q-49 -48 -112.5 -75.5t-135.5 -27.5q-145 0 -247.5 102.5t-102.5 247.5q0 144 102.5 247t247.5 103q72 0 135.5 -27.5t112.5 -74.5l-99 -100q-63 62 -149 62q-87 0 -148.5 -62t-61.5 -148q0 -87 61.5 -148.5t148.5 -61.5z" />
    <glyph glyph-name="C" unicode="&#xc7;" horiz-adv-x="698" 
d="M400 140q87 0 149 62l99 -99q-49 -48 -112.5 -75.5t-135.5 -27.5q-145 0 -247.5 102.5t-102.5 247.5q0 144 102.5 247t247.5 103q72 0 135.5 -27.5t112.5 -74.5l-99 -100q-63 62 -149 62q-87 0 -148.5 -62t-61.5 -148q0 -87 61.5 -148.5t148.5 -61.5z" />
    <glyph glyph-name="D" unicode="D" 
d="M437 597q103 -103 103 -247q0 -145 -103 -247.5t-247 -102.5h-140v700h140q144 0 247 -103zM338.5 201.5q61.5 61.5 61.5 148.5q0 86 -61.5 148t-148.5 62v-420q87 0 148.5 61.5z" />
    <glyph glyph-name="E" unicode="E" horiz-adv-x="520" 
d="M190 280v-140h280l-56 -140h-364v700h420l-56 -140h-224v-140h210l-56 -140h-154z" />
    <glyph glyph-name="E" unicode="&#xcb;" horiz-adv-x="520" 
d="M190 280v-140h280l-56 -140h-364v700h420l-56 -140h-224v-140h210l-56 -140h-154z" />
    <glyph glyph-name="E" unicode="&#xca;" horiz-adv-x="520" 
d="M190 280v-140h280l-56 -140h-364v700h420l-56 -140h-224v-140h210l-56 -140h-154z" />
    <glyph glyph-name="E" unicode="&#xc9;" horiz-adv-x="520" 
d="M190 280v-140h280l-56 -140h-364v700h420l-56 -140h-224v-140h210l-56 -140h-154z" />
    <glyph glyph-name="E" unicode="&#xc8;" horiz-adv-x="520" 
d="M190 280v-140h280l-56 -140h-364v700h420l-56 -140h-224v-140h210l-56 -140h-154z" />
    <glyph glyph-name="F" unicode="F" horiz-adv-x="520" 
d="M414 560h-224v-140h210l-56 -140h-154v-280h-140v700h420z" />
    <glyph glyph-name="G" unicode="G" horiz-adv-x="800" 
d="M743 420q7 -33 7 -70q0 -145 -103 -247.5t-247 -102.5q-145 0 -247.5 102.5t-102.5 247.5q0 144 102.5 247t247.5 103q72 0 135.5 -27.5t112.5 -74.5l-99 -100q-63 62 -149 62q-87 0 -148.5 -62t-61.5 -148q0 -87 61.5 -148.5t148.5 -61.5q68 0 122 39.5t76 100.5h-198
v140h343z" />
    <glyph glyph-name="H" unicode="H" 
d="M400 700h140v-700h-140v280h-210v-280h-140v700h140v-280h210v280z" />
    <glyph glyph-name="I" unicode="I" horiz-adv-x="240" 
d="M190 0h-140v700h140v-700z" />
    <glyph glyph-name="I" unicode="&#xcf;" horiz-adv-x="240" 
d="M190 0h-140v700h140v-700z" />
    <glyph glyph-name="I" unicode="&#xce;" horiz-adv-x="240" 
d="M190 0h-140v700h140v-700z" />
    <glyph glyph-name="I" unicode="&#xcd;" horiz-adv-x="240" 
d="M190 0h-140v700h140v-700z" />
    <glyph glyph-name="I" unicode="&#xcc;" horiz-adv-x="240" 
d="M190 0h-140v700h140v-700z" />
    <glyph glyph-name="J" unicode="J" horiz-adv-x="407" 
d="M217 700h140v-420q0 -116 -82.5 -198t-198.5 -82q-13 0 -26 1v141q14 -2 26 -2q58 0 99.5 41t41.5 99v420z" />
    <glyph glyph-name="K" unicode="K" 
d="M506 700l-155 -268l-103 141l86 127h172zM391 213l149 -213h-171l-179 253v-253h-140v700h140v-214l1 1z" />
    <glyph glyph-name="L" unicode="L" horiz-adv-x="520" 
d="M190 140h280v-140h-420v700h140v-560z" />
    <glyph glyph-name="M" unicode="M" horiz-adv-x="917" 
d="M460 375l76 -186l-77 -189l-129 317l-129 -317h-151l280 700l108 -270v-1l7 -18zM588 700l279 -700h-150l-129 317l-76 190z" />
    <glyph glyph-name="N" unicode="N" horiz-adv-x="660" 
d="M50 700l336 -306l224 -205v-189l-420 383v-383h-140v700zM470 700h140v-382l-140 130v252z" />
    <glyph glyph-name="N" unicode="&#xd1;" horiz-adv-x="660" 
d="M50 700l336 -306l224 -205v-189l-420 383v-383h-140v700zM470 700h140v-382l-140 130v252z" />
    <glyph glyph-name="O" unicode="O" horiz-adv-x="800" 
d="M647 597q103 -103 103 -247q0 -145 -103 -247.5t-247 -102.5q-145 0 -247.5 102.5t-102.5 247.5q0 144 102.5 247t247.5 103q144 0 247 -103zM548 201.5q62 61.5 62 148.5q0 86 -62 148t-148 62q-87 0 -148.5 -62t-61.5 -148q0 -87 61.5 -148.5t148.5 -61.5
q86 0 148 61.5z" />
    <glyph glyph-name="O" unicode="&#xd8;" horiz-adv-x="800" 
d="M647 597q103 -103 103 -247q0 -145 -103 -247.5t-247 -102.5q-145 0 -247.5 102.5t-102.5 247.5q0 144 102.5 247t247.5 103q144 0 247 -103zM548 201.5q62 61.5 62 148.5q0 86 -62 148t-148 62q-87 0 -148.5 -62t-61.5 -148q0 -87 61.5 -148.5t148.5 -61.5
q86 0 148 61.5z" />
    <glyph glyph-name="O" unicode="&#xd6;" horiz-adv-x="800" 
d="M647 597q103 -103 103 -247q0 -145 -103 -247.5t-247 -102.5q-145 0 -247.5 102.5t-102.5 247.5q0 144 102.5 247t247.5 103q144 0 247 -103zM548 201.5q62 61.5 62 148.5q0 86 -62 148t-148 62q-87 0 -148.5 -62t-61.5 -148q0 -87 61.5 -148.5t148.5 -61.5
q86 0 148 61.5z" />
    <glyph glyph-name="O" unicode="&#xd5;" horiz-adv-x="800" 
d="M647 597q103 -103 103 -247q0 -145 -103 -247.5t-247 -102.5q-145 0 -247.5 102.5t-102.5 247.5q0 144 102.5 247t247.5 103q144 0 247 -103zM548 201.5q62 61.5 62 148.5q0 86 -62 148t-148 62q-87 0 -148.5 -62t-61.5 -148q0 -87 61.5 -148.5t148.5 -61.5
q86 0 148 61.5z" />
    <glyph glyph-name="O" unicode="&#xd4;" horiz-adv-x="800" 
d="M647 597q103 -103 103 -247q0 -145 -103 -247.5t-247 -102.5q-145 0 -247.5 102.5t-102.5 247.5q0 144 102.5 247t247.5 103q144 0 247 -103zM548 201.5q62 61.5 62 148.5q0 86 -62 148t-148 62q-87 0 -148.5 -62t-61.5 -148q0 -87 61.5 -148.5t148.5 -61.5
q86 0 148 61.5z" />
    <glyph glyph-name="O" unicode="&#xd3;" horiz-adv-x="800" 
d="M647 597q103 -103 103 -247q0 -145 -103 -247.5t-247 -102.5q-145 0 -247.5 102.5t-102.5 247.5q0 144 102.5 247t247.5 103q144 0 247 -103zM548 201.5q62 61.5 62 148.5q0 86 -62 148t-148 62q-87 0 -148.5 -62t-61.5 -148q0 -87 61.5 -148.5t148.5 -61.5
q86 0 148 61.5z" />
    <glyph glyph-name="O" unicode="&#xd2;" horiz-adv-x="800" 
d="M647 597q103 -103 103 -247q0 -145 -103 -247.5t-247 -102.5q-145 0 -247.5 102.5t-102.5 247.5q0 144 102.5 247t247.5 103q144 0 247 -103zM548 201.5q62 61.5 62 148.5q0 86 -62 148t-148 62q-87 0 -148.5 -62t-61.5 -148q0 -87 61.5 -148.5t148.5 -61.5
q86 0 148 61.5z" />
    <glyph glyph-name="P" unicode="P" 
d="M468 628q72 -72 72 -173t-72 -173t-173 -72h-8v140h8q43 0 74 31t31 74t-31 74t-74 31h-105v-210h1v-140h-1v-210h-140v700h245q101 0 173 -72z" />
    <glyph glyph-name="Q" unicode="Q" horiz-adv-x="801" 
d="M696 153l55 -55l-99 -98l-59 58q-88 -58 -193 -58q-145 0 -247.5 102.5t-102.5 247.5q0 144 102.5 247t247.5 103q144 0 247 -103t103 -247q0 -52 -14 -100l-128 129q-9 69 -60 119q-62 62 -148 62q-87 0 -148.5 -62t-61.5 -148q0 -87 61.5 -148.5t148.5 -61.5
q48 0 91 21l-91 90l99 99l91 -90l102 -103z" />
    <glyph glyph-name="R" unicode="R" 
d="M495.5 314.5q-44.5 -62.5 -113.5 -88.5l158 -226h-171l-179 256v-256h-140v700h141v-140h-1v-210h105q43 0 74 31t31 74t-31 74t-74 31h-8v140h8q101 0 173 -72t72 -173q0 -78 -44.5 -140.5z" />
    <glyph glyph-name="S" unicode="S" horiz-adv-x="520" 
d="M375.5 366q36.5 -22 65.5 -59.5t29 -96.5q0 -87 -61.5 -148.5t-148.5 -61.5t-148.5 61.5t-61.5 148.5h140q0 -29 20.5 -49.5t49.5 -20.5t49.5 20.5t20.5 49.5q0 44 -35 58q-37 13 -48 17t-38 13q-32 11 -67.5 34.5t-63.5 62t-28 95.5q0 87 61.5 148.5t148.5 61.5
t148.5 -61.5t61.5 -148.5h-140q0 29 -20.5 49.5t-49.5 20.5t-49.5 -20.5t-20.5 -49.5q0 -37 30.5 -56.5t45.5 -23.5q8 -3 40.5 -12.5t69 -31.5z" />
    <glyph glyph-name="T" unicode="T" horiz-adv-x="647" 
d="M106 700h491l-57 -140h-175v-560h-140v560h-175z" />
    <glyph glyph-name="U" unicode="U" horiz-adv-x="660" 
d="M470 700h140v-420q0 -116 -82 -198t-198 -82t-198 82t-82 198v420h140v-420q0 -58 41 -99t99 -41q57 0 98.5 41t41.5 99v420z" />
    <glyph glyph-name="U" unicode="&#xdc;" horiz-adv-x="660" 
d="M470 700h140v-420q0 -116 -82 -198t-198 -82t-198 82t-82 198v420h140v-420q0 -58 41 -99t99 -41q57 0 98.5 41t41.5 99v420z" />
    <glyph glyph-name="U" unicode="&#xdb;" horiz-adv-x="660" 
d="M470 700h140v-420q0 -116 -82 -198t-198 -82t-198 82t-82 198v420h140v-420q0 -58 41 -99t99 -41q57 0 98.5 41t41.5 99v420z" />
    <glyph glyph-name="U" unicode="&#xda;" horiz-adv-x="660" 
d="M470 700h140v-420q0 -116 -82 -198t-198 -82t-198 82t-82 198v420h140v-420q0 -58 41 -99t99 -41q57 0 98.5 41t41.5 99v420z" />
    <glyph glyph-name="U" unicode="&#xd9;" horiz-adv-x="660" 
d="M470 700h140v-420q0 -116 -82 -198t-198 -82t-198 82t-82 198v420h140v-420q0 -58 41 -99t99 -41q57 0 98.5 41t41.5 99v420z" />
    <glyph glyph-name="V" unicode="V" horiz-adv-x="730" 
d="M530 700h150l-190 -421l-70 176zM364 331l1 2l71 -175l-72 -158l-14 33l-300 667h148z" />
    <glyph glyph-name="W" unicode="W" horiz-adv-x="917" 
d="M459 693l127 -313l78 -195l-76 -192l-131 325l-127 -325l-280 700h151l129 -317zM716 693h151l-151 -378l-77 189z" />
    <glyph glyph-name="X" unicode="X" horiz-adv-x="660" 
d="M610 700l-144 -252l-80 142l63 110h161zM410 351v-1l200 -350h-161l-119 209l-119 -209h-161l199 350l-199 350h161l119 -208z" />
    <glyph glyph-name="Y" unicode="Y" horiz-adv-x="660" 
d="M450 700h160l-154 -255l-71 134zM209 700l66 -121l125 -232v-347h-140v314l-210 386h159z" />
    <glyph glyph-name="Y" unicode="&#x178;" horiz-adv-x="660" 
d="M450 700h160l-154 -255l-71 134zM209 700l66 -121l125 -232v-347h-140v314l-210 386h159z" />
    <glyph glyph-name="Y" unicode="&#xdd;" horiz-adv-x="660" 
d="M450 700h160l-154 -255l-71 134zM209 700l66 -121l125 -232v-347h-140v314l-210 386h159z" />
    <glyph glyph-name="Z" unicode="Z" 
d="M540 700l-268 -560h268v-140h-490l268 560h-268v140h490z" />
    <glyph glyph-name="a" unicode="a" horiz-adv-x="530" 
d="M382 432l98 -79v-344h-98v44q-61 -56 -130 -56q-88 0 -145 63q-57 65 -57 162q0 95 57 158.5t142 63.5q74 0 133 -61v49zM354 121q34 39 34 98.5t-34 98.5q-33 37 -86 37q-51 0 -85 -38q-33 -38 -33 -95q0 -61 32 -99q34 -39 85 -39q54 0 87 37z" />
    <glyph glyph-name="a" unicode="&#xe5;" horiz-adv-x="530" 
d="M382 432l98 -79v-344h-98v44q-61 -56 -130 -56q-88 0 -145 63q-57 65 -57 162q0 95 57 158.5t142 63.5q74 0 133 -61v49zM354 121q34 39 34 98.5t-34 98.5q-33 37 -86 37q-51 0 -85 -38q-33 -38 -33 -95q0 -61 32 -99q34 -39 85 -39q54 0 87 37z" />
    <glyph glyph-name="a" unicode="&#xe4;" horiz-adv-x="530" 
d="M382 432l98 -79v-344h-98v44q-61 -56 -130 -56q-88 0 -145 63q-57 65 -57 162q0 95 57 158.5t142 63.5q74 0 133 -61v49zM354 121q34 39 34 98.5t-34 98.5q-33 37 -86 37q-51 0 -85 -38q-33 -38 -33 -95q0 -61 32 -99q34 -39 85 -39q54 0 87 37z" />
    <glyph glyph-name="a" unicode="&#xe3;" horiz-adv-x="530" 
d="M382 432l98 -79v-344h-98v44q-61 -56 -130 -56q-88 0 -145 63q-57 65 -57 162q0 95 57 158.5t142 63.5q74 0 133 -61v49zM354 121q34 39 34 98.5t-34 98.5q-33 37 -86 37q-51 0 -85 -38q-33 -38 -33 -95q0 -61 32 -99q34 -39 85 -39q54 0 87 37z" />
    <glyph glyph-name="a" unicode="&#xe2;" horiz-adv-x="530" 
d="M382 432l98 -79v-344h-98v44q-61 -56 -130 -56q-88 0 -145 63q-57 65 -57 162q0 95 57 158.5t142 63.5q74 0 133 -61v49zM354 121q34 39 34 98.5t-34 98.5q-33 37 -86 37q-51 0 -85 -38q-33 -38 -33 -95q0 -61 32 -99q34 -39 85 -39q54 0 87 37z" />
    <glyph glyph-name="a" unicode="&#xe1;" horiz-adv-x="530" 
d="M382 432l98 -79v-344h-98v44q-61 -56 -130 -56q-88 0 -145 63q-57 65 -57 162q0 95 57 158.5t142 63.5q74 0 133 -61v49zM354 121q34 39 34 98.5t-34 98.5q-33 37 -86 37q-51 0 -85 -38q-33 -38 -33 -95q0 -61 32 -99q34 -39 85 -39q54 0 87 37z" />
    <glyph glyph-name="a" unicode="&#xe0;" horiz-adv-x="530" 
d="M382 432l98 -79v-344h-98v44q-61 -56 -130 -56q-88 0 -145 63q-57 65 -57 162q0 95 57 158.5t142 63.5q74 0 133 -61v49zM354 121q34 39 34 98.5t-34 98.5q-33 37 -86 37q-51 0 -85 -38q-33 -38 -33 -95q0 -61 32 -99q34 -39 85 -39q54 0 87 37z" />
    <glyph glyph-name="b" unicode="b" horiz-adv-x="530" 
d="M423 380q57 -64 57 -158q0 -98 -57 -162q-57 -63 -144 -63q-74 0 -131 56v-44h-98v733l98 -78v-281q58 61 133 61q85 0 142 -64zM346 122q34 38 34 95q0 61 -33 99q-33 39 -84 39q-54 0 -88 -37q-33 -38 -33 -98q0 -61 33 -98q33 -38 87 -38q51 0 84 38z" />
    <glyph glyph-name="c" unicode="c" horiz-adv-x="449" 
d="M276 84q35 0 62 15l61 -71q-59 -31 -119 -31q-98 0 -164 63q-66 64 -66 158.5t67 160t164 65.5q63 0 118 -30l-60 -74q-26 15 -61 15q-55 0 -91.5 -38.5t-36.5 -96.5q0 -60 35 -98q36 -38 91 -38z" />
    <glyph glyph-name="c" unicode="&#xe7;" horiz-adv-x="449" 
d="M276 84q35 0 62 15l61 -71q-59 -31 -119 -31q-98 0 -164 63q-66 64 -66 158.5t67 160t164 65.5q63 0 118 -30l-60 -74q-26 15 -61 15q-55 0 -91.5 -38.5t-36.5 -96.5q0 -60 35 -98q36 -38 91 -38z" />
    <glyph glyph-name="d" unicode="d" horiz-adv-x="530" 
d="M382 742l98 -78v-655h-98v44q-58 -56 -131 -56q-87 0 -144 63q-57 65 -57 162q0 94 57 158q56 64 142 64q74 0 133 -61v359zM354 121q34 39 34 98.5t-34 98.5q-33 37 -86 37q-51 0 -85 -38q-33 -38 -33 -95q0 -61 32 -99q34 -39 85 -39q54 0 87 37z" />
    <glyph glyph-name="e" unicode="e" horiz-adv-x="506" 
d="M456 220l-1 -23h-303q4 -52 34 -83q30 -30 77 -30q36 0 60 17q24 18 46 52q59 -81 59 -82q-25 -27 -55 -45q-24 -15 -52.5 -22t-61.5 -7q-94 0 -152 60q-57 62 -57 163q0 100 56 162t148 62q93 0 148 -60q54 -59 54 -164zM159 277h196q-21 78 -99 78q-18 0 -33.5 -5
t-28 -15.5t-22 -25t-13.5 -32.5z" />
    <glyph glyph-name="e" unicode="&#xeb;" horiz-adv-x="506" 
d="M456 220l-1 -23h-303q4 -52 34 -83q30 -30 77 -30q36 0 60 17q24 18 46 52q59 -81 59 -82q-25 -27 -55 -45q-24 -15 -52.5 -22t-61.5 -7q-94 0 -152 60q-57 62 -57 163q0 100 56 162t148 62q93 0 148 -60q54 -59 54 -164zM159 277h196q-21 78 -99 78q-18 0 -33.5 -5
t-28 -15.5t-22 -25t-13.5 -32.5z" />
    <glyph glyph-name="e" unicode="&#xea;" horiz-adv-x="506" 
d="M456 220l-1 -23h-303q4 -52 34 -83q30 -30 77 -30q36 0 60 17q24 18 46 52q59 -81 59 -82q-25 -27 -55 -45q-24 -15 -52.5 -22t-61.5 -7q-94 0 -152 60q-57 62 -57 163q0 100 56 162t148 62q93 0 148 -60q54 -59 54 -164zM159 277h196q-21 78 -99 78q-18 0 -33.5 -5
t-28 -15.5t-22 -25t-13.5 -32.5z" />
    <glyph glyph-name="e" unicode="&#xe9;" horiz-adv-x="506" 
d="M456 220l-1 -23h-303q4 -52 34 -83q30 -30 77 -30q36 0 60 17q24 18 46 52q59 -81 59 -82q-25 -27 -55 -45q-24 -15 -52.5 -22t-61.5 -7q-94 0 -152 60q-57 62 -57 163q0 100 56 162t148 62q93 0 148 -60q54 -59 54 -164zM159 277h196q-21 78 -99 78q-18 0 -33.5 -5
t-28 -15.5t-22 -25t-13.5 -32.5z" />
    <glyph glyph-name="e" unicode="&#xe8;" horiz-adv-x="506" 
d="M456 220l-1 -23h-303q4 -52 34 -83q30 -30 77 -30q36 0 60 17q24 18 46 52q59 -81 59 -82q-25 -27 -55 -45q-24 -15 -52.5 -22t-61.5 -7q-94 0 -152 60q-57 62 -57 163q0 100 56 162t148 62q93 0 148 -60q54 -59 54 -164zM159 277h196q-21 78 -99 78q-18 0 -33.5 -5
t-28 -15.5t-22 -25t-13.5 -32.5z" />
    <glyph glyph-name="f" unicode="f" horiz-adv-x="339" 
d="M192 642q-9 -19 -9 -71v-139h106v-91h-106v-332h-98v332h-35v91h35v163q0 80 28 113q38 46 111 46q26 0 65 -15v-100l-10 5q-31 16 -52 16q-26 0 -35 -18z" />
    <glyph glyph-name="g" unicode="g" horiz-adv-x="529" 
d="M381 432l98 -79v-334q0 -30 -2 -53t-5 -40q-11 -48 -41 -82q-57 -66 -158 -66q-84 0 -139 45q-57 47 -65 130h98q5 -31 18 -48q31 -39 89 -39q107 0 107 131v59q-58 -59 -134 -59q-86 0 -141 62q-56 64 -56 159q0 92 52 157q55 69 146 69q80 0 133 -60v48zM355 125
q30 37 30 94q0 62 -33 99q-33 38 -85 38q-56 0 -88 -41q-29 -37 -29 -96q0 -58 29 -95q32 -40 88 -40t88 41z" />
    <glyph glyph-name="h" unicode="h" horiz-adv-x="464" 
d="M377 397q37 -40 37 -129v-259h-98v250q0 51 -18 73.5t-58 22.5q-51 0 -72 -31q-20 -32 -20 -111v-204h-98v733l98 -78v-267q52 47 115 47q71 0 114 -47z" />
    <glyph glyph-name="i" unicode="i" horiz-adv-x="227" 
d="M113.5 543q-26.5 0 -45 19t-18.5 46q0 25 18.5 44t44.5 19q27 0 46 -19q18 -18 18 -44.5t-18 -45.5q-19 -19 -45.5 -19zM65 9v423l97 -79v-344h-97z" />
    <glyph glyph-name="i" unicode="&#xef;" horiz-adv-x="227" 
d="M113.5 543q-26.5 0 -45 19t-18.5 46q0 25 18.5 44t44.5 19q27 0 46 -19q18 -18 18 -44.5t-18 -45.5q-19 -19 -45.5 -19zM65 9v423l97 -79v-344h-97z" />
    <glyph glyph-name="i" unicode="&#xee;" horiz-adv-x="227" 
d="M113.5 543q-26.5 0 -45 19t-18.5 46q0 25 18.5 44t44.5 19q27 0 46 -19q18 -18 18 -44.5t-18 -45.5q-19 -19 -45.5 -19zM65 9v423l97 -79v-344h-97z" />
    <glyph glyph-name="i" unicode="&#xed;" horiz-adv-x="227" 
d="M113.5 543q-26.5 0 -45 19t-18.5 46q0 25 18.5 44t44.5 19q27 0 46 -19q18 -18 18 -44.5t-18 -45.5q-19 -19 -45.5 -19zM65 9v423l97 -79v-344h-97z" />
    <glyph glyph-name="i" unicode="&#xec;" horiz-adv-x="227" 
d="M113.5 543q-26.5 0 -45 19t-18.5 46q0 25 18.5 44t44.5 19q27 0 46 -19q18 -18 18 -44.5t-18 -45.5q-19 -19 -45.5 -19zM65 9v423l97 -79v-344h-97z" />
    <glyph glyph-name="j" unicode="j" horiz-adv-x="227" 
d="M113.5 543q-26.5 0 -45 19t-18.5 46q0 25 18.5 44t44.5 19q27 0 46 -19q18 -18 18 -44.5t-18 -45.5q-19 -19 -45.5 -19zM65 -221v653l97 -79v-574h-97z" />
    <glyph glyph-name="k" unicode="k" horiz-adv-x="480" 
d="M233 254l197 -245h-127l-140 178l-15 -15v-163h-98v733l98 -78v-369l137 137h132z" />
    <glyph glyph-name="l" unicode="l" horiz-adv-x="198" 
d="M50 742l98 -78v-655h-98v733z" />
    <glyph glyph-name="m" unicode="m" horiz-adv-x="680" 
d="M487 444q143 0 143 -174v-261h-98v235q0 61 -15 86t-50 25q-40 0 -58.5 -30t-18.5 -98v-218h-98v233q0 113 -65 113q-42 0 -60.5 -30.5t-18.5 -97.5v-218h-98v423h98v-39q28 29 48 40q21 11 53 11q72 0 114 -63q46 63 124 63z" />
    <glyph glyph-name="n" unicode="n" horiz-adv-x="464" 
d="M379 397q35 -39 35 -129v-259h-98v236q0 63 -17 87t-62 24q-48 0 -69 -32q-20 -32 -20 -111v-204h-98v423h98v-39q51 51 116 51q73 0 115 -47z" />
    <glyph glyph-name="n" unicode="&#xf1;" horiz-adv-x="464" 
d="M379 397q35 -39 35 -129v-259h-98v236q0 63 -17 87t-62 24q-48 0 -69 -32q-20 -32 -20 -111v-204h-98v423h98v-39q51 51 116 51q73 0 115 -47z" />
    <glyph glyph-name="o" unicode="o" horiz-adv-x="551" 
d="M436 379q65 -65 65 -159q0 -95 -65 -159q-66 -64 -162 -64q-95 0 -160 65q-64 64 -64 161q0 92 65.5 156.5t159.5 64.5q95 0 161 -65zM367 121q34 37 34 98.5t-34 98.5q-35 37 -92 37q-56 0 -90.5 -37t-34.5 -96q0 -64 34 -101t91 -37q58 0 92 37z" />
    <glyph glyph-name="o" unicode="&#xf8;" horiz-adv-x="551" 
d="M436 379q65 -65 65 -159q0 -95 -65 -159q-66 -64 -162 -64q-95 0 -160 65q-64 64 -64 161q0 92 65.5 156.5t159.5 64.5q95 0 161 -65zM367 121q34 37 34 98.5t-34 98.5q-35 37 -92 37q-56 0 -90.5 -37t-34.5 -96q0 -64 34 -101t91 -37q58 0 92 37z" />
    <glyph glyph-name="o" unicode="&#xf6;" horiz-adv-x="551" 
d="M436 379q65 -65 65 -159q0 -95 -65 -159q-66 -64 -162 -64q-95 0 -160 65q-64 64 -64 161q0 92 65.5 156.5t159.5 64.5q95 0 161 -65zM367 121q34 37 34 98.5t-34 98.5q-35 37 -92 37q-56 0 -90.5 -37t-34.5 -96q0 -64 34 -101t91 -37q58 0 92 37z" />
    <glyph glyph-name="o" unicode="&#xf5;" horiz-adv-x="551" 
d="M436 379q65 -65 65 -159q0 -95 -65 -159q-66 -64 -162 -64q-95 0 -160 65q-64 64 -64 161q0 92 65.5 156.5t159.5 64.5q95 0 161 -65zM367 121q34 37 34 98.5t-34 98.5q-35 37 -92 37q-56 0 -90.5 -37t-34.5 -96q0 -64 34 -101t91 -37q58 0 92 37z" />
    <glyph glyph-name="o" unicode="&#xf4;" horiz-adv-x="551" 
d="M436 379q65 -65 65 -159q0 -95 -65 -159q-66 -64 -162 -64q-95 0 -160 65q-64 64 -64 161q0 92 65.5 156.5t159.5 64.5q95 0 161 -65zM367 121q34 37 34 98.5t-34 98.5q-35 37 -92 37q-56 0 -90.5 -37t-34.5 -96q0 -64 34 -101t91 -37q58 0 92 37z" />
    <glyph glyph-name="o" unicode="&#xf3;" horiz-adv-x="551" 
d="M436 379q65 -65 65 -159q0 -95 -65 -159q-66 -64 -162 -64q-95 0 -160 65q-64 64 -64 161q0 92 65.5 156.5t159.5 64.5q95 0 161 -65zM367 121q34 37 34 98.5t-34 98.5q-35 37 -92 37q-56 0 -90.5 -37t-34.5 -96q0 -64 34 -101t91 -37q58 0 92 37z" />
    <glyph glyph-name="o" unicode="&#xf2;" horiz-adv-x="551" 
d="M436 379q65 -65 65 -159q0 -95 -65 -159q-66 -64 -162 -64q-95 0 -160 65q-64 64 -64 161q0 92 65.5 156.5t159.5 64.5q95 0 161 -65zM367 121q34 37 34 98.5t-34 98.5q-35 37 -92 37q-56 0 -90.5 -37t-34.5 -96q0 -64 34 -101t91 -37q58 0 92 37z" />
    <glyph glyph-name="p" unicode="p" horiz-adv-x="530" 
d="M423 379q57 -64 57 -161q0 -95 -57 -158q-56 -63 -142 -63q-75 0 -133 59v-277h-98v653h98v-46q57 58 131 58q87 0 144 -65zM346 122q34 38 34 96q0 61 -33 99t-84 38q-54 0 -87.5 -37t-33.5 -98q0 -60 33 -98t87 -38q51 0 84 38z" />
    <glyph glyph-name="q" unicode="q" horiz-adv-x="530" 
d="M382 432h98v-653h-98v277q-58 -59 -133 -59q-86 0 -142 63q-57 63 -57 158q0 97 57 161q57 65 144 65q73 0 131 -58v46zM354 121q34 38 34 98t-34 99q-33 37 -86 37q-51 0 -85 -38q-33 -38 -33 -95q0 -61 33 -99q33 -39 84 -39q54 0 87 37z" />
    <glyph glyph-name="r" unicode="r" horiz-adv-x="377" 
d="M246 444q38 0 81 -26l-45 -89q-28 20 -54 20q-80 0 -80 -121v-219h-98v423h98v-38q27 28 47 39q22 11 51 11z" />
    <glyph glyph-name="s" unicode="s" horiz-adv-x="402" 
d="M325 214q27 -28 27 -76q0 -61 -45 -102q-44 -39 -106 -39q-107 0 -151 103l83 39q18 -30 27 -39q18 -16 42 -16q50 0 50 45q0 26 -38 49l-30 14q-14 7 -30 14q-42 21 -60 42q-22 27 -22 68q0 55 38 91q39 37 94 37q81 0 120 -84l-80 -43q-19 39 -48 39q-13 0 -22.5 -9
t-9.5 -23q0 -24 56 -48q78 -34 105 -62z" />
    <glyph glyph-name="t" unicode="t" horiz-adv-x="315" 
d="M189 432h76v-91h-76v-332h-97v332h-42v91h42v155l97 -79v-76z" />
    <glyph glyph-name="u" unicode="u" horiz-adv-x="461" 
d="M314 432h97v-245q0 -51 -12 -88q-12 -33 -42 -59q-50 -43 -126 -43t-126 43q-30 26 -43 59q-12 30 -12 88v245h98v-243q0 -105 83 -105t83 105v243z" />
    <glyph glyph-name="u" unicode="&#xfc;" horiz-adv-x="461" 
d="M314 432h97v-245q0 -51 -12 -88q-12 -33 -42 -59q-50 -43 -126 -43t-126 43q-30 26 -43 59q-12 30 -12 88v245h98v-243q0 -105 83 -105t83 105v243z" />
    <glyph glyph-name="u" unicode="&#xfb;" horiz-adv-x="461" 
d="M314 432h97v-245q0 -51 -12 -88q-12 -33 -42 -59q-50 -43 -126 -43t-126 43q-30 26 -43 59q-12 30 -12 88v245h98v-243q0 -105 83 -105t83 105v243z" />
    <glyph glyph-name="u" unicode="&#xfa;" horiz-adv-x="461" 
d="M314 432h97v-245q0 -51 -12 -88q-12 -33 -42 -59q-50 -43 -126 -43t-126 43q-30 26 -43 59q-12 30 -12 88v245h98v-243q0 -105 83 -105t83 105v243z" />
    <glyph glyph-name="u" unicode="&#xf9;" horiz-adv-x="461" 
d="M314 432h97v-245q0 -51 -12 -88q-12 -33 -42 -59q-50 -43 -126 -43t-126 43q-30 26 -43 59q-12 30 -12 88v245h98v-243q0 -105 83 -105t83 105v243z" />
    <glyph glyph-name="v" unicode="v" horiz-adv-x="538" 
d="M378 432h110l-115 -235l-51 113zM269 194l50 -109l-51 -105l-218 452h109z" />
    <glyph glyph-name="w" unicode="w" horiz-adv-x="779" 
d="M620 432h109l-116 -239l-48 118zM390 470l112 -260l55 -132l-49 -101l-118 272l-119 -272l-221 455h110l111 -242z" />
    <glyph glyph-name="x" unicode="x" horiz-adv-x="587" 
d="M512 432l-94 -118l-59 75l34 43h119zM356 238l181 -229h-116l-124 158l-128 -158h-119l188 229l-152 194h116l95 -121v1z" />
    <glyph glyph-name="y" unicode="y" horiz-adv-x="574" 
d="M413 432h111l-124 -240l-55 103zM293 189l54 -101l-160 -309h-112l165 308l-190 345h113z" />
    <glyph glyph-name="y" unicode="&#xff;" horiz-adv-x="574" 
d="M413 432h111l-124 -240l-55 103zM293 189l54 -101l-160 -309h-112l165 308l-190 345h113z" />
    <glyph glyph-name="y" unicode="&#xfd;" horiz-adv-x="574" 
d="M413 432h111l-124 -240l-55 103zM293 189l54 -101l-160 -309h-112l165 308l-190 345h113z" />
    <glyph glyph-name="z" unicode="z" horiz-adv-x="567" 
d="M517 432l-273 -331h251v-92h-445l274 332h-216v91h409z" />
    <glyph glyph-name="nonbreakingspace" unicode="&#xa0;" horiz-adv-x="290" 
 />
    <glyph glyph-name="softhyphen" unicode="&#xad;" horiz-adv-x="0" 
 />
  </font>
</defs>
</svg>
